<svg width="640" height="480" xmlns="http://www.w3.org/2000/svg" xmlns:svg="http://www.w3.org/2000/svg">
 <g>
  <title>Layer 1</title>
  <circle id="svg_5" r="58.03389" cy="119" cx="399.000002" stroke-width="5" stroke="#000000" fill="#ffff00"/>
  <path d="m456,100c1.714325,0 2.40921,0.019928 3.401337,-0.001335c0.835175,-0.017899 1.772736,-0.13723 2.560333,-0.360329c0.894562,-0.253403 1.529663,-0.51403 2.56015,-0.959671c0.747833,-0.323402 1.535736,-0.691139 2.397003,-1.026001c0.450684,-0.175224 1.923126,-0.63736 2.455841,-0.767334c0.551636,-0.134598 1.72879,-0.3685 2.354675,-0.474663c0.650452,-0.110336 1.32843,-0.215675 2.77066,-0.410667c0.763214,-0.103188 1.549133,-0.200493 2.348999,-0.295502c0.80545,-0.095673 1.609131,-0.18573 2.403015,-0.268501c0.775452,-0.080849 2.914429,-0.272415 3.540497,-0.314499c0.580627,-0.039024 1.627319,-0.093056 2.554169,-0.110832c0.846558,-0.016235 2.052979,-0.010666 2.84433,-0.010666c0.767334,0 1.494659,0 2.475647,0c0.819,0 1.724335,0 2.736023,0c0.869324,0 1.930664,0 2.56665,0c0.692017,0 1.782501,0 2.864014,0c0.679993,0 1.625,0 2.47998,0c1.001343,0 1.876007,0 2.886505,0c0.779327,0 1.633514,0 2.495667,0c0.90451,0 1.804504,0 2.715179,0c0.910828,0 1.799988,0 2.789642,0c0.621033,0 1.570374,0 2.442688,0c1.028992,0 1.77832,0 2.559631,0c1.197388,0 1.997375,0 2.797363,0c0.799988,0 2,0 2.796021,0c0.771973,0 1.495972,0 2.703979,0c0.781311,0 1.241211,0.168465 0.424011,0.718834c-0.50824,0.3423 -1.098328,0.742126 -2.090698,1.44783c-0.723999,0.514885 -1.488586,1.072281 -1.895813,1.354172c-0.852051,0.589851 -1.294861,0.904915 -2.780518,1.778999c-0.522644,0.307503 -1.068176,0.601616 -1.628967,0.889496c-1.143188,0.586868 -1.734253,0.859627 -2.330688,1.125336c-1.191895,0.530975 -2.397827,1.003578 -3.001831,1.232666c-0.605316,0.229584 -1.216431,0.452446 -1.831482,0.678001c-1.249512,0.458221 -2.531586,0.93898 -3.185516,1.196167c-0.664764,0.261444 -1.336273,0.534172 -2.014496,0.814499c-0.685486,0.283325 -1.375153,0.573532 -2.068512,0.8685c-2.096954,0.892067 -2.795105,1.195084 -3.491486,1.494164c-0.690582,0.296585 -1.372284,0.590027 -2.041504,0.880501c-0.654785,0.28421 -1.292114,0.561111 -1.906494,0.835503c-1.694519,0.756798 -2.201508,0.994102 -3.137329,1.449333c-0.436676,0.212425 -1.257172,0.615059 -2.35202,1.236c-0.687225,0.389771 -1.334717,0.793747 -2.262146,1.400002c-0.908539,0.593895 -1.501404,1.001335 -2.093842,1.389328c-0.851013,0.55735 -1.631317,1.067108 -2.362488,1.453506c-0.69809,0.368927 -1.779327,0.764282 -2.416168,0.957161c-1.028595,0.311531 -1.734283,0.476448 -2.698669,0.800003c-0.821472,0.275604 -1.6651,0.649055 -2.576172,0.947334c-0.855286,0.280022 -1.435577,0.77993 -2.178497,1.463333c-0.534332,0.491516 -1.348755,1.073631 -1.839996,1.425331c-0.791687,0.566826 -1.578918,1.155869 -2.281525,1.759499c-0.652985,0.56102 -1.440491,1.263382 -2.057159,1.647339c-0.780273,0.48584 -1.600006,0.857162 -2.399994,1.257164c-0.600006,0.300003 -1.612823,0.769196 -2.342834,1.199997c-0.791992,0.467377 -1.455841,1.100006 -2.057159,1.689331l-0.800018,0.526672l-0.899811,0.305328l-0.614838,0.494675" id="svg_6" stroke-linecap="null" stroke-linejoin="null" stroke-dasharray="null" stroke-width="5" stroke="#000000" fill="#ffd4aa"/>
  <line id="svg_8" y2="406" x2="59" y1="145" x1="348" stroke-linecap="null" stroke-linejoin="null" stroke-dasharray="null" stroke-width="5" stroke="#000000" fill="none"/>
  <path d="m348,148c0.436005,1.825333 0.809601,2.51033 1.389343,3.363998c0.49646,0.731049 0.912506,1.503723 1.777313,1.802673c0.672577,0.232498 1.395172,0.574493 2.197357,1.233322c0.785034,0.64473 1.259583,1.219757 1.837311,2.084c0.453522,0.678436 0.926544,1.402328 1.634674,1.880005c0.729645,0.492188 1.546906,0.869751 2.328003,1.199997c0.933716,0.39476 1.868683,0.561615 2.436005,1.046677c0.746704,0.638443 1.370544,1.421951 1.920837,1.889328c0.762482,0.647598 1.510193,0.951569 2.3125,1.5c0.674255,0.460907 1.288055,1.307571 1.966644,1.714661c0.735962,0.441498 1.608826,0.712173 2.300018,1.385345c0.60788,0.592026 1.238495,1.173447 1.699982,1.785324c0.552979,0.733185 0.869232,1.556305 1.684021,2.227997c0.631866,0.520905 1.759674,0.598267 2.431976,1.17067c0.603729,0.514023 1.434174,0.64296 2.058685,1.141342c0.607971,0.485184 1.425323,0.574661 2.329834,0.574661c0.862152,0 1.737152,-0.000427 2.382172,0c0.997314,0.000671 1.81958,-0.034332 2.629333,0.085327c1.242126,0.183563 1.851532,0.5746 2.884003,0.793167c0.788818,0.166977 1.799988,0.121445 2.578644,0.121506c0.978333,0.000092 1.221344,0.646667 1.221344,1.485336c0,0.919159 0,1.917328 0,2.556335c0,0.728989 0,1.927658 0,2.619659c0,0.723999 0,2.171997 0,2.854675c0,0.658661 0,1.636658 0,2.650665c0,0.718658 0,1.46933 0,2.637833c0,1.195496 0,1.995499 0,2.795502c0,0.799988 0,1.599991 0,2.79982c0,0.79567 0,1.579346 0,2.343002c0,1.0905 0,1.771835 0,2.736343c0,0.616333 0,1.821655 0,2.774155c0,0.726669 0,1.573334 0,2.580002c0,0.573502 0,1.834503 0,2.503998c0,0.683502 0,1.372009 0,2.056503c0,1.939499 0,2.520172 0,3.577499c0,0.484665 0.000061,1.386002 0,2.223343c-0.000092,1.205322 0.005493,2.005585 -0.020844,2.805328c-0.026337,0.8004 -0.13028,2.002457 -0.264496,2.800003c-0.135101,0.80278 -0.32135,1.600952 -0.515991,2.399994c-0.292725,1.20163 -0.500244,2.004105 -0.698669,2.820831c-0.10083,0.414978 -0.306274,1.263123 -0.600006,2.60051c-0.204346,0.930389 -0.299194,1.40416 -0.5,2.353333c-0.199188,0.941498 -0.396423,1.859467 -0.600006,2.73999c-0.196533,0.850143 -0.398956,1.674927 -0.599976,2.484009c-0.298492,1.201385 -0.494873,1.993683 -0.700012,2.759659c-0.195129,0.728668 -0.487549,1.712967 -0.799988,2.536331c-0.288574,0.760452 -0.707458,1.83638 -0.900024,2.47467c-0.208038,0.689621 -0.389343,1.418991 -0.799988,2.863998c-0.193665,0.681458 -0.414215,1.313248 -0.642822,2.205002c-0.264893,1.03331 -0.33136,1.965332 -0.441193,2.645676c-0.163208,1.010895 -0.441315,1.877258 -0.620483,2.534821c-0.303101,1.112473 -0.497192,1.948807 -0.695496,2.831833c-0.100861,0.449158 -0.28421,1.347809 -0.600006,2.615997c-0.190521,0.765106 -0.391937,1.463867 -0.700012,2.424347c-0.292358,0.911469 -0.592896,1.813293 -0.820831,2.408997c-0.346985,0.906891 -0.794189,1.803497 -1.131836,2.399994c-0.512512,0.905426 -0.892578,1.485535 -1.325989,2.400177c-0.425171,0.897247 -0.640045,1.538513 -0.905334,2.18515c-0.42691,1.040619 -0.769043,1.773834 -1.136841,2.535522c-0.379425,0.785736 -0.979156,1.979156 -1.37915,2.779144c-0.200012,0.400024 -0.600006,1.200012 -1,2c-0.600006,1.200012 -1.000793,2.003662 -1.209015,2.409027c-0.428741,0.834656 -0.901428,1.70755 -1.161652,2.161652c-0.554413,0.967468 -1.19693,1.999329 -1.543671,2.534668c-0.354523,0.547363 -0.715912,1.102753 -1.494659,2.189331c-0.388031,0.541412 -1.185577,1.576447 -1.590851,2.0625c-0.785248,0.941772 -1.190247,1.380829 -1.579315,1.821991c-0.765198,0.867676 -1.165405,1.280273 -2.199341,2.642334c-0.346375,0.456268 -0.673553,0.929626 -1.300659,1.899353c-0.31485,0.486847 -0.920288,1.480042 -1.520844,2.479156c-0.300201,0.499451 -0.894989,1.491302 -1.189331,1.978668c-0.5737,0.949951 -0.848358,1.410217 -1.644012,2.687988c-0.243561,0.391144 -0.699829,1.121033 -1.145813,1.770844c-0.606476,0.883606 -1.20697,1.653381 -1.820831,2.326508c-0.586975,0.643616 -1.193481,1.242645 -1.804504,1.835999c-0.624908,0.606873 -1.557831,1.40567 -2.079498,1.799988c-0.536957,0.405884 -1.378754,0.980316 -2.149353,1.600006c-0.729034,0.586243 -1.171173,1.016235 -1.850647,1.685333c-0.742493,0.731171 -1.273163,1.27182 -1.836853,1.83551c-0.583649,0.583649 -1.479156,1.479156 -2.079163,2.079163c-0.600006,0.600006 -1.199982,1.199982 -1.799988,1.799988c-0.600006,0.600006 -1.195984,1.202789 -1.800018,1.789337c-0.596039,0.578766 -1.184601,1.143829 -2.099976,1.889343c-0.590332,0.480774 -1.212646,0.904999 -2.100006,1.605316c-0.913513,0.720947 -1.505127,1.272491 -1.810669,1.552002c-0.626617,0.573273 -1.262421,1.179626 -2.310669,2.063995c-0.723022,0.609985 -1.105591,0.898041 -1.853333,1.5c-0.74292,0.598053 -1.463867,1.194153 -2.140015,1.798676c-0.654388,0.585052 -1.265991,1.175079 -1.884003,1.716003c-0.889252,0.778351 -1.506927,1.235718 -2.122162,1.706177c-0.637482,0.487488 -1.648346,1.309631 -2.000671,1.621826c-0.741028,0.656647 -1.496124,1.360931 -1.88916,1.706665c-0.784332,0.689941 -1.577179,1.33493 -2.388,1.881317c-0.779358,0.525208 -1.188019,0.73642 -1.944153,1.217529c-1.101807,0.70105 -1.782959,1.224335 -2.421173,1.787811c-0.636658,0.562103 -0.933228,0.86676 -1.835999,1.764008c-0.601166,0.597504 -1.193909,1.19577 -1.799988,1.764008c-0.594086,0.557037 -1.493134,1.323517 -2.100006,1.778839c-0.593414,0.445221 -1.500671,1.05481 -2.399841,1.657166c-0.59613,0.399323 -1.192383,0.782196 -2.014832,1.399994c-0.776703,0.583466 -1.452362,1.20871 -2.138,1.799988c-0.706268,0.6091 -1.501251,1.20462 -2.068176,1.600006c-0.580353,0.404755 -1.479156,1 -2.08316,1.402679c-0.958496,0.638977 -1.303986,0.869324 -2.052002,1.367981c-1.308319,0.872162 -1.798462,1.199005 -2.311005,1.539185c-0.530121,0.351837 -1.628479,1.076294 -2.189331,1.441986c-0.561798,0.366302 -1.67514,1.084473 -2.755646,1.761505c-0.520966,0.326447 -1.030426,0.640381 -2.005341,1.23999c-0.463715,0.285187 -1.749329,1.079987 -2.139832,1.325012c-0.733032,0.459961 -1.407288,0.907166 -2.091003,1.26001c-1.346558,0.694916 -2.108063,0.911896 -2.872681,1.161652c-0.782684,0.255646 -1.191162,0.355774 -2.37915,0.821503c-0.807739,0.31665 -1.6026,0.69397 -2.399994,1.083008c-1.203979,0.587402 -1.600006,0.795502 -2.400024,1.195496c-0.799988,0.399994 -1.599915,0.80011 -2.799988,1.399994c-0.399811,0.19986 -1.19342,0.599731 -1.979156,0.979156c-0.761688,0.367798 -1.851624,0.860474 -2.536835,1.136841c-0.65625,0.264709 -1.642761,0.62207 -2.650665,1.050659c-0.721863,0.306976 -1.457855,0.660461 -2.208008,1.007996c-0.74054,0.343079 -1.800827,0.811523 -2.46817,1.068176c-0.63356,0.243652 -1.556229,0.554688 -2.457001,0.857178c-0.889877,0.298828 -1.746124,0.59198 -2.77916,0.999817c-0.719238,0.283936 -1.480103,0.586914 -2.421005,0.733521c-0.74736,0.116455 -1.575806,0.138489 -2.423996,0.155975c-0.823883,0.016968 -1.912003,0.010681 -2.800003,0.010681c-0.834,0 -1.776016,-0.003387 -2.534668,0.001343c-0.870697,0.005432 -1.845627,0.028442 -2.369171,0.055817c-1.706665,0.089233 -2.315079,0.161865 -2.940155,0.226837c-0.637589,0.066284 -1.931915,0.216766 -2.581345,0.29068c-0.645233,0.073425 -1.280716,0.164917 -3.107834,0.303833c-0.572983,0.043579 -1.681396,0.088928 -2.222,0.100647c-1.068878,0.023163 -1.6035,0.020172 -3.242325,0.020844c-0.563843,0.000244 -1.135666,0 -2.299332,0c-0.589844,0 -1.18367,0 -2.979172,0c-0.600006,0 -1.199997,0 -2.399994,0c-0.600006,0 -1.200012,0 -2.400009,0c-1.199997,0 -1.800003,0 -3,0c-0.599991,0 -1.199997,0 -2.399994,0c-0.600006,0 -1.800003,0 -2.998672,0c-0.596832,0 -1.190659,0 -2.365326,0c-0.578842,0 -2.269333,0 -2.814331,0c-1.060013,0 -1.575012,0 -2.575012,0c-0.485001,0 -1.880005,0.004181 -2.761322,-0.001343c-0.849365,-0.00531 -1.676224,-0.013641 -2.484009,-0.083984c-1.20462,-0.104889 -2.007355,-0.264404 -2.822159,-0.435516c-0.837982,-0.175995 -1.263397,-0.285492 -2.600342,-0.579163c-0.926239,-0.203461 -1.394241,-0.29657 -2.31749,-0.5c-0.892746,-0.196686 -2.118759,-0.498291 -2.847,-0.695496c-0.67305,-0.182251 -1.605606,-0.459503 -2.813004,-0.620483c-0.588364,-0.07843 -1.460876,-0.05481 -2.479843,-0.305511c-0.921631,-0.226746 -1.511032,-0.598785 -2.5215,-1.074005c-0.594833,-0.279755 -1.600906,-0.577332 -2.399994,-0.704498c-1.00119,-0.159332 -1.806442,-0.422211 -2.600006,-0.801331c-0.808136,-0.386078 -1.432816,-0.698669 -2.566666,-1.365326c-0.525726,-0.309113 -1.074066,-0.679016 -1.994995,-1.237854c-0.998688,-0.606049 -1.719223,-1.000122 -2.463669,-1.384827c-0.373123,-0.19281 -1.109787,-0.581726 -2.553162,-1.189148c-0.659012,-0.277344 -1.298813,-0.506073 -2.220169,-0.82019c-0.899384,-0.30661 -1.792999,-0.594727 -2.365341,-0.801331c-1.073853,-0.387665 -1.778503,-0.71109 -2.68866,-1.100006c-0.963715,-0.411804 -1.501709,-0.595337 -2.322006,-0.899994c-1.060898,-0.394012 -1.757797,-0.736572 -2.450653,-0.963989c-1.175034,-0.385712 -2.003113,-0.382904 -2.822006,-0.488678c-1.036301,-0.13385 -1.724472,-0.365692 -2.34816,-0.651825c-1.018036,-0.467072 -1.803421,-0.897675 -2.604507,-1.295502c-0.788284,-0.391479 -1.490433,-0.828766 -2.479172,-0.979156c-0.910889,-0.13855 -1.648117,-0.429718 -2.520828,-0.854187c-0.659668,-0.320831 -1.468369,-0.728638 -2.300003,-1.113983c-0.871857,-0.403992 -1.524017,-0.710388 -2.399994,-1.105347c-0.722931,-0.325958 -1.567062,-0.71106 -2.400002,-1.168823c-0.675026,-0.370972 -1.2659,-1.220642 -1.999832,-1.657166c-0.782707,-0.465515 -0.746651,-1.369812 -1.066833,-2.121338c-0.332825,-0.781219 -0.858665,-1.563995 -1.444,-2.02533l-0.778671,-0.399994l-0.610664,-0.741333" id="svg_10" stroke-linecap="null" stroke-linejoin="null" stroke-dasharray="null" stroke-width="5" stroke="#000000" fill="#ffff00"/>
  <path d="m411,86c1.610657,0 2.5,0 3.399994,0c0.895508,0 1.50766,0.290146 1.601349,1.199997c0.083679,0.812607 0.798828,1.452614 0.977814,2.300003c0.186035,0.880806 0.020844,1.800003 0.020844,2.699997c0,0.900002 0,1.800003 0,2.600006c0,0.899994 0.112701,1.809494 -0.020844,2.720833c-0.144623,0.986992 -0.37558,1.897179 -1.274658,2.36483c-0.77948,0.405449 -1.704498,0.114334 -2.504486,0.114334c-1.033356,0 -1.925385,0.418816 -2.764008,-0.036003c-0.657776,-0.356735 -0.636749,-1.37249 -1.152008,-2.047997c-0.467621,-0.613022 -0.34021,-1.616531 -0.783997,-2.416c-0.441895,-0.796028 -0.5,-1.721497 -0.5,-2.599831c0,-0.87484 0,-1.7015 0,-2.600166l0,-0.864006l0.520844,-0.435997l0.8685,0" id="svg_13" stroke-linecap="null" stroke-linejoin="null" stroke-dasharray="null" stroke-width="5" stroke="#000000" fill="#000000"/>
 </g>
</svg>